<svg width="673" height="640" viewBox="0 0 673 640" fill="none" xmlns="http://www.w3.org/2000/svg">
<path d="M312.918 12.9477C327.605 4.88363 345.395 4.88364 360.082 12.9477L602.5 146.045C618.175 154.651 627.918 171.114 627.918 188.997V451.003C627.918 468.886 618.175 485.349 602.5 493.955L360.082 627.052C345.395 635.116 327.605 635.116 312.918 627.052L70.5001 493.955C54.8245 485.349 45.0825 468.886 45.0825 451.003V188.997C45.0825 171.114 54.8245 154.651 70.5001 146.045L312.918 12.9477Z" fill="black"/>
<path d="M314.867 76.4322C328.494 69.1889 344.831 69.189 358.458 76.4322L551.683 179.136C566.847 187.196 576.325 202.968 576.325 220.141V281.97H541.185V220.141C541.185 215.964 538.878 212.127 535.189 210.167L341.965 107.462C338.65 105.701 334.677 105.701 331.362 107.462L138.137 210.167C134.448 212.127 132.142 215.964 132.142 220.141V419.103C132.142 423.28 134.448 427.116 138.137 429.077L331.362 531.781C334.677 533.542 338.65 533.543 341.965 531.781L535.189 429.077C538.878 427.116 541.184 423.28 541.185 419.103V356.018H576.325V419.103L576.318 419.907C576.028 436.767 566.61 452.174 551.683 460.108L358.458 562.812L357.817 563.146C344.321 570.053 328.282 569.942 314.867 562.812L121.643 460.108C106.716 452.174 97.2985 436.767 97.0078 419.907L97.001 419.103V220.141C97.001 203.237 106.184 187.69 120.936 179.52L121.643 179.136L314.867 76.4322Z" fill="white"/>
<path d="M224.653 416H200.648L270.08 226.909H293.716L363.148 416H339.142L282.636 256.824H281.159L224.653 416ZM233.517 342.136H330.278V362.449H233.517V342.136Z" fill="white"/>
<line x1="419.978" y1="220.013" x2="419.054" y2="426.123" stroke="white" stroke-width="6"/>
<line x1="376.974" y1="217.731" x2="460.977" y2="217" stroke="white" stroke-width="6"/>
<line x1="376.974" y1="427" x2="460.977" y2="426.27" stroke="white" stroke-width="6"/>
</svg>
